# File units = meters
mtllib WishingWell.mtl
g WishingWell
v -0.2667 -0.2667 0.6096 
v -0.2667 -0.2667 0.6477 
v -0.03175 -0.2667 0.6477 
v -0.03175 -0.2667 0.6096 
v -0.2667 0.2667 0.6096 
v -0.2667 0.2667 0.6477 
v -0.03175 0.2667 0.6096 
v -0.03175 0.2667 0.6477 
v -0.03175 0.2286 1.397 
v -0.03175 0.2667 1.397 
v -0.03175 0.2286 0.6096 
v 0.03175 0.2286 0.6096 
v 0.03175 0.2286 1.397 
v 1.11022e-16 0.2286 1.4224 
v 0.03175 0.2667 0.6477 
v 0.03175 0.2667 0.6096 
v 0.03175 0.2667 1.397 
v 0.2667 0.2667 0.6096 
v 0.2667 0.2667 0.6477 
v 0.2667 -0.2667 0.6096 
v 0.2667 -0.2667 0.6477 
v 0.03175 -0.2667 0.6096 
v 0.03175 -0.2667 0.6477 
v -0.03175 -0.2286 0.6096 
v 0.03175 -0.2286 0.6096 
v -0.03175 -0.2286 1.397 
v 0.03175 -0.2286 1.397 
v 1.11022e-16 -0.2286 1.4224 
v 0.03175 -0.2667 1.397 
v -0.03175 -0.2667 1.397 
v -0.436349 0.2667 1.07332 
v -0.436349 -0.2667 1.07332 
v 0.436349 0.2667 1.07332 
v 0.436349 -0.2667 1.07332 
v -0.476018 -0.2667 1.12291 
v -0.476018 0.2667 1.12291 
v -2.08167e-16 -0.2667 1.50372 
v 0.476018 -0.2667 1.12291 
v 0.476018 0.2667 1.12291 
v -2.08167e-16 0.2667 1.50372 
v 0.3556 0.3556 0.6477 
v -0.3556 0.3556 0.6477 
v -0.3556 -0.3556 0.6477 
v 0.3556 -0.3556 0.6477 
v 0.3556 -0.3556 0.6096 
v 0.3556 0.3556 0.6096 
v -0.3556 0.3556 0.6096 
v -0.3556 -0.3556 0.6096 
v 0.3048 -0.3048 0.6096 
v -0.3048 -0.3048 0.6096 
v -0.3048 0.3048 0.6096 
v 0.3048 0.3048 0.6096 
v 0.3048 -0.3048 0 
v 0.3048 0.3048 0 
v -0.3048 0.3048 0 
v -0.3048 -0.3048 0 
vn 0 1 0 
vn 1 2.08141e-16 0 
vn 0 -1 0 
vn -1 -3.64246e-16 0 
vn 1 3.64246e-16 0 
vn 0 -1 0 
vn -1 -2.08141e-16 0 
vn 0 1 0 
vn 0 0 1 
vn 1 -3.64246e-16 0 
vn -1 3.64246e-16 0 
vn 0.624695 0 -0.780869 
vn -0.624695 0 -0.780869 
vn -0.780869 0 -0.624695 
vn 0 -1 0 
vn 0 1 0 
vn -0.624695 0 0.780869 
vn 0.624695 0 0.780869 
vn 0.780869 0 -0.624695 
vn 0 0 1 
vn 1 1.56106e-16 0 
vn 0 1 0 
vn -1 -1.56106e-16 0 
vn 0 -1 0 
vn 0 0 -1 
vn 1 1.82123e-16 0 
vn 0 1 0 
vn -1 -1.82123e-16 0 
vn 0 -1 0 
vn 0 0 -1 
usemtl 0.615686_0.811765_0.929412_0.000000_0.000000
o mesh0
f 1//1 2//1 3//1 
f 3//1 4//1 1//1 
o mesh1
f 2//2 1//2 5//2 
f 5//2 6//2 2//2 
o mesh2
f 5//3 7//3 8//3 
f 8//3 6//3 5//3 
o mesh3
f 9//4 10//4 8//4 
f 8//4 11//4 9//4 
f 8//4 7//4 11//4 
o mesh4
f 12//3 13//3 9//3 
f 9//3 11//3 12//3 
f 13//3 14//3 9//3 
o mesh5
f 13//5 12//5 15//5 
f 12//5 16//5 15//5 
f 15//5 17//5 13//5 
o mesh6
f 18//6 19//6 15//6 
f 15//6 16//6 18//6 
o mesh7
f 19//7 18//7 20//7 
f 20//7 21//7 19//7 
o mesh8
f 20//8 22//8 23//8 
f 23//8 21//8 20//8 
o mesh9
f 5//9 24//9 11//9 
f 12//9 11//9 24//9 
f 24//9 25//9 12//9 
f 18//9 16//9 12//9 
f 20//9 18//9 25//9 
f 12//9 25//9 18//9 
f 11//9 7//9 5//9 
f 1//9 4//9 24//9 
f 24//9 5//9 1//9 
f 25//9 22//9 20//9 
o mesh10
f 24//8 26//8 27//8 
f 26//8 28//8 27//8 
f 27//8 25//8 24//8 
o mesh11
f 27//10 29//10 23//10 
f 23//10 25//10 27//10 
f 23//10 22//10 25//10 
o mesh12
f 26//11 24//11 3//11 
f 24//11 4//11 3//11 
f 3//11 30//11 26//11 
o mesh13
f 28//12 26//12 9//12 
f 31//12 10//12 9//12 
f 32//12 31//12 26//12 
f 9//12 26//12 31//12 
f 9//12 14//12 28//12 
f 26//12 30//12 32//12 
o mesh14
f 33//13 27//13 13//13 
f 14//13 13//13 27//13 
f 27//13 28//13 14//13 
f 34//13 29//13 27//13 
f 27//13 33//13 34//13 
f 13//13 17//13 33//13 
o mesh15
f 35//14 36//14 31//14 
f 31//14 32//14 35//14 
o mesh16
f 23//15 29//15 30//15 
f 29//15 37//15 30//15 
f 35//15 32//15 30//15 
f 38//15 37//15 29//15 
f 30//15 37//15 35//15 
f 30//15 3//15 23//15 
f 29//15 34//15 38//15 
o mesh17
f 8//16 10//16 17//16 
f 17//16 15//16 8//16 
f 39//16 33//16 17//16 
f 36//16 40//16 10//16 
f 17//16 40//16 39//16 
f 10//16 40//16 17//16 
f 10//16 31//16 36//16 
o mesh18
f 37//17 40//17 36//17 
f 36//17 35//17 37//17 
o mesh19
f 37//18 38//18 39//18 
f 39//18 40//18 37//18 
o mesh20
f 38//19 34//19 33//19 
f 33//19 39//19 38//19 
o mesh21
f 41//20 42//20 8//20 
f 8//20 15//20 41//20 
f 43//20 44//20 23//20 
f 42//20 6//20 8//20 
f 42//20 43//20 2//20 
f 23//20 3//20 43//20 
f 2//20 6//20 42//20 
f 44//20 21//20 23//20 
f 3//20 2//20 43//20 
f 44//20 41//20 19//20 
f 19//20 21//20 44//20 
f 15//20 19//20 41//20 
o mesh22
f 44//21 45//21 46//21 
f 46//21 41//21 44//21 
o mesh23
f 41//22 46//22 47//22 
f 47//22 42//22 41//22 
o mesh24
f 42//23 47//23 48//23 
f 48//23 43//23 42//23 
o mesh25
f 43//24 48//24 45//24 
f 45//24 44//24 43//24 
o mesh26
f 46//25 45//25 49//25 
f 45//25 48//25 50//25 
f 50//25 49//25 45//25 
f 48//25 47//25 51//25 
f 47//25 46//25 52//25 
f 51//25 50//25 48//25 
f 49//25 52//25 46//25 
f 52//25 51//25 47//25 
o mesh27
f 49//26 53//26 54//26 
f 54//26 52//26 49//26 
o mesh28
f 52//27 54//27 55//27 
f 55//27 51//27 52//27 
o mesh29
f 51//28 55//28 56//28 
f 56//28 50//28 51//28 
o mesh30
f 50//29 56//29 53//29 
f 53//29 49//29 50//29 
o mesh31
f 55//30 54//30 53//30 
f 53//30 56//30 55//30 
